<svg width="138" height="138" viewBox="0 0 138 138" fill="none" xmlns="http://www.w3.org/2000/svg">
<path d="M78.4662 55.78C81.211 58.8678 79.4689 64.8967 74.5742 69.2544C69.6794 73.6059 43.3626 92.5291 40.6131 89.4476C37.8724 86.3554 59.7455 62.4254 64.6403 58.0742C69.5285 53.7231 75.7192 52.6944 78.4662 55.78Z" fill="#363B3F"/>
<path d="M84.4801 55.78C81.7353 58.8678 83.4774 64.8967 88.3721 69.2544C93.2669 73.6059 119.584 92.5291 122.333 89.4476C125.074 86.3554 103.201 62.4254 98.306 58.0742C93.4156 53.7231 87.2249 52.6944 84.4801 55.78Z" fill="#363B3F"/>
<path d="M107.343 99.071C107.343 104.41 103.013 133.198 97.6701 133.198C92.3335 133.198 88.0059 104.408 88.0059 99.071C88.0059 93.7344 92.3357 89.4025 97.6701 89.4025C103.013 89.4025 107.343 93.7344 107.343 99.071Z" fill="#799998"/>
<path d="M74.9451 99.0711C74.9451 104.41 70.6153 133.198 65.2721 133.198C59.9355 133.198 55.6079 104.408 55.6079 99.0711C55.6079 93.7344 59.9377 89.4025 65.2721 89.4025C70.6153 89.4025 74.9451 93.7344 74.9451 99.0711Z" fill="#799998"/>
<path d="M108.751 86.2952C108.751 120.877 96.5422 109.36 81.4743 109.36C66.4108 109.36 54.1978 120.877 54.1978 86.2952C54.1978 66.5225 66.4152 50.4949 81.4743 50.4949C96.5378 50.4973 108.751 66.5247 108.751 86.2952Z" fill="#9DBAB8"/>
<path d="M81.4722 50.4973C96.5357 50.4973 108.749 66.5247 108.749 86.2977C108.749 120.88 96.5401 109.363 81.4722 109.363" fill="#8DAAA7"/>
<path d="M76.1525 133.373C76.1525 137.461 71.2794 138 65.2743 138C59.2692 138 54.396 137.463 54.396 133.373C54.396 129.282 59.2692 123.652 65.2743 123.652C71.2794 123.652 76.1525 129.282 76.1525 133.373Z" fill="#9DBAB8"/>
<path d="M76.1525 133.373C76.1525 137.461 71.2794 138 65.2743 138C59.2692 138 54.396 137.463 54.396 133.373" fill="#8DAAA7"/>
<path d="M108.552 133.373C108.552 137.461 103.679 138 97.6742 138C91.6691 138 86.7959 137.463 86.7959 133.373C86.7959 129.282 91.6691 123.652 97.6742 123.652C103.679 123.652 108.552 129.282 108.552 133.373Z" fill="#9DBAB8"/>
<path d="M108.552 133.373C108.552 137.461 103.679 138 97.6742 138C91.6691 138 86.7959 137.463 86.7959 133.373" fill="#8DAAA7"/>
<path d="M59.8535 64.5302C65.8307 67.5575 73.3192 69.097 81.4765 69.097C89.6293 69.097 97.1178 67.5575 103.093 64.5302C98.1077 56.013 90.289 50.4973 81.4721 50.4973C72.6573 50.4973 64.8365 56.0108 59.8535 64.5302Z" fill="#191E21"/>
<path d="M116.772 34.0147C116.772 51.2627 100.967 59.933 81.4767 59.933C61.9821 59.933 46.1724 51.2627 46.1724 34.0147C46.1724 16.7626 61.9818 0 81.4764 0C100.967 0 116.772 16.7626 116.772 34.0147Z" fill="#9DBAB8"/>
<path d="M116.772 34.0147C116.772 51.2627 100.967 59.933 81.4767 59.933C61.9821 59.933 46.1724 51.2627 46.1724 34.0147C46.1724 16.7626 61.9821 8.26703 81.4767 8.26703C100.967 8.26703 116.772 16.7626 116.772 34.0147Z" fill="#8FA8A8"/>
<path d="M116.772 34.0147C116.772 51.2627 100.967 59.933 81.4767 59.933C61.9821 59.933 46.1724 51.2627 46.1724 34.0147" fill="#799998"/>
<path d="M110.582 35.2225C110.582 37.6029 108.649 39.535 106.269 39.535H56.6753C54.2949 39.535 52.3628 37.6029 52.3628 35.2225V31.628C52.3628 29.2453 54.2949 27.3154 56.6753 27.3154H106.269C108.649 27.3154 110.582 29.2453 110.582 31.628V35.2225Z" fill="#363B3F"/>
<path d="M52.3628 34.0147V35.2222C52.3628 37.6027 54.2949 39.5347 56.6753 39.5347H106.269C108.649 39.5347 110.582 37.6027 110.582 35.2222V34.0147H52.3628Z" fill="#191E21"/>
<path d="M82.8198 35.1297C82.8198 35.8756 82.2159 36.4795 81.4721 36.4795C80.7281 36.4795 80.1245 35.8756 80.1245 35.1297V31.7164C80.1245 30.9723 80.7284 30.3687 81.4721 30.3687C82.2162 30.3687 82.8198 30.9726 82.8198 31.7164V35.1297Z" fill="#DB1F1F"/>
<path d="M47.8213 42.9439C52.3474 54.2514 65.7008 62.0892 81.476 62.0892C97.2469 62.0892 110.601 54.2512 115.122 42.9439H47.8213Z" fill="#191E21"/>
<path d="M88.0767 45.3244H74.8697C71.299 45.3244 68.4009 48.2225 68.4009 51.7932V60.1637C72.4482 61.3991 76.8535 62.0914 81.4765 62.0914C86.0973 62.0914 90.5026 61.4013 94.5455 60.1659V51.7932C94.5455 48.2203 91.6474 45.3244 88.0767 45.3244Z" fill="#E29B86"/>
<path d="M88.0767 48.1987H74.8697C71.299 48.1987 68.4009 51.0968 68.4009 54.6675V60.1637C72.4482 61.3991 76.8535 62.0914 81.4765 62.0914C86.0973 62.0914 90.5026 61.4013 94.5455 60.1659V54.6675C94.5455 51.0946 91.6474 48.1987 88.0767 48.1987Z" fill="#F9C1AC"/>
<path d="M80.1243 85.3486C80.1243 88.9193 77.2262 91.8174 73.6555 91.8174H65.5694C61.9987 91.8174 59.1006 88.9193 59.1006 85.3486V77.2628C59.1006 73.6921 61.9987 70.794 65.5694 70.794H73.6552C77.2259 70.794 80.124 73.6921 80.124 77.2628V85.3486H80.1243Z" fill="#AAD1CA"/>
<path d="M103.843 85.3486C103.843 88.9193 100.945 91.8174 97.374 91.8174H89.2882C85.7175 91.8174 82.8193 88.9193 82.8193 85.3486V77.2628C82.8193 73.6921 85.7175 70.794 89.2882 70.794H97.374C100.945 70.794 103.843 73.6921 103.843 77.2628V85.3486Z" fill="#AAD1CA"/>
<path d="M55.0923 99.5432C58.165 117.49 68.8082 109.363 81.4718 109.363C94.1398 109.363 104.783 117.492 107.851 99.5432H55.0923Z" fill="#363B3F"/>
<path d="M81.4634 105.292C84.1917 105.292 86.4034 103.08 86.4034 100.352C86.4034 97.6236 84.1917 95.4119 81.4634 95.4119C78.7351 95.4119 76.5234 97.6236 76.5234 100.352C76.5234 103.08 78.7351 105.292 81.4634 105.292Z" fill="#363B3F"/>
<path d="M66.708 76.2729C66.708 76.6222 66.4255 76.9025 66.0762 76.9025H62.4839C62.1346 76.9025 61.8564 76.6222 61.8564 76.2729C61.8564 75.928 62.1346 75.6455 62.4839 75.6455H66.0762C66.4258 75.6455 66.708 75.928 66.708 76.2729Z" fill="#8DAAA7"/>
<path d="M66.708 79.1472C66.708 79.4965 66.4255 79.7768 66.0762 79.7768H62.4839C62.1346 79.7768 61.8564 79.4965 61.8564 79.1472C61.8564 78.8023 62.1346 78.5198 62.4839 78.5198H66.0762C66.4258 78.5198 66.708 78.8023 66.708 79.1472Z" fill="#8DAAA7"/>
<path d="M66.708 82.0215C66.708 82.3708 66.4255 82.6511 66.0762 82.6511H62.4839C62.1346 82.6511 61.8564 82.3708 61.8564 82.0215C61.8564 81.6766 62.1346 81.3941 62.4839 81.3941H66.0762C66.4258 81.3941 66.708 81.6766 66.708 82.0215Z" fill="#8DAAA7"/>
<path d="M87.4019 61.2267C87.4019 63.8313 85.2888 65.9446 82.6839 65.9446H80.258C77.6533 65.9446 75.54 63.8335 75.54 61.2267C75.54 58.622 77.6511 56.5087 80.258 56.5087H82.6839C85.2888 56.509 87.4019 58.622 87.4019 61.2267Z" fill="#191E21"/>
<path d="M86.5028 52.1964C86.5028 53.2744 84.2496 52.065 81.4722 52.065C78.6929 52.065 76.4395 53.2747 76.4395 52.1964C76.4395 51.1182 78.6926 48.4229 81.4722 48.4229C84.2493 48.4229 86.5028 51.1182 86.5028 52.1964Z" fill="#870E0E"/>
<path d="M100.339 108.216C100.339 110.549 91.8911 112.44 81.4721 112.44C71.0532 112.44 62.605 110.549 62.605 108.216" fill="#9DBAB8"/>
<path d="M20.8837 102.383C21.703 103.205 23.0356 103.205 23.8549 102.383L30.2955 95.9443C31.1148 95.1228 31.1148 93.7925 30.2955 92.971L27.6949 90.3704C26.8734 89.5489 25.543 89.5489 24.7215 90.3704L18.2831 96.811C17.4616 97.6303 17.4616 98.9607 18.2831 99.7822L20.8837 102.383Z" fill="#232728"/>
<path d="M19.922 98.517C20.2152 98.2238 20.2152 97.7538 19.922 97.4603L17.6322 95.1705C17.3412 94.8773 16.8668 94.8773 16.5755 95.1705L15.6505 96.0955C15.3574 96.3886 15.3574 96.8587 15.6505 97.1521L17.9404 99.442C18.2358 99.7352 18.708 99.733 19.0012 99.442L19.922 98.517Z" fill="#232728"/>
<path d="M40.1412 92.5376C40.9627 93.3591 42.2931 93.3591 43.1124 92.5376L44.0417 91.6083C44.8632 90.789 44.8632 89.4564 44.0417 88.6349L40.6974 85.2906C39.8781 84.4713 38.5477 84.4713 37.7262 85.2906L36.7947 86.2221C35.9753 87.0436 35.9753 88.374 36.7947 89.1933L40.1412 92.5376Z" fill="#232728"/>
<path d="M40.6976 85.2927C41.5191 86.1143 41.5191 87.4446 40.6976 88.2661L29.9228 99.0409C29.1035 99.8624 27.7709 99.8624 26.9516 99.0409L21.1923 93.2817C20.3708 92.4602 20.3708 91.1298 21.1923 90.3105L31.9671 79.5335C32.7842 78.7142 34.1146 78.7142 34.9405 79.5335L40.6976 85.2927Z" fill="#232728"/>
<path d="M21.1918 90.3102L31.9666 79.5332C32.7837 78.7139 34.1141 78.7139 34.94 79.5332L37.3528 81.9482C38.1743 82.7697 38.1743 84.1023 37.3528 84.9216L26.578 95.6964C25.7587 96.5179 24.4261 96.5179 23.6068 95.6964L21.1918 93.2814C20.3703 92.4599 20.3703 91.1295 21.1918 90.3102Z" fill="#3D4344"/>
</svg>
