<svg width="136" height="136" viewBox="0 0 136 136" fill="none" xmlns="http://www.w3.org/2000/svg">
<path d="M61.5677 97.6352C61.5677 102.897 57.3006 131.268 52.0349 131.268C46.7756 131.268 42.5107 102.894 42.5107 97.6352C42.5107 92.3759 46.7778 88.1068 52.0349 88.1068C57.3006 88.1068 61.5677 92.3759 61.5677 97.6352Z" fill="#6B8C85"/>
<path d="M93.4959 97.6352C93.4959 102.897 89.2289 131.268 83.9631 131.268C78.7038 131.268 74.439 102.894 74.439 97.6352C74.439 92.3759 78.706 88.1068 83.9631 88.1068C89.2289 88.1068 93.4959 92.3759 93.4959 97.6352Z" fill="#6B8C85"/>
<path d="M94.8816 85.0445C94.8816 119.125 82.8499 107.776 68.0004 107.776C53.1552 107.776 41.1191 119.125 41.1191 85.0445C41.1191 65.5584 53.1595 49.763 68.0004 49.763C82.8456 49.7655 94.8816 65.5605 94.8816 85.0445Z" fill="black"/>
<path d="M62.7576 131.44C62.7576 135.469 57.9551 136 52.037 136C46.1189 136 41.3164 135.471 41.3164 131.44C41.3164 127.408 46.1189 121.86 52.037 121.86C57.9551 121.86 62.7576 127.409 62.7576 131.44Z" fill="#C90D59"/>
<path d="M62.7576 131.44C62.7576 135.469 57.9551 136 52.037 136C46.1189 136 41.3164 135.471 41.3164 131.44" fill="#AA0B53"/>
<path d="M94.6878 131.44C94.6878 135.469 89.8852 136 83.9672 136C78.0491 136 73.2466 135.471 73.2466 131.44C73.2466 127.408 78.0491 121.86 83.9672 121.86C89.8852 121.86 94.6878 127.409 94.6878 131.44Z" fill="#C90D59"/>
<path d="M94.6878 131.44C94.6878 135.469 89.8852 136 83.9672 136C78.0491 136 73.2466 135.471 73.2466 131.44" fill="#AA0B53"/>
<path d="M102.789 33.5218C102.789 50.5198 87.2123 59.0644 68.0046 59.0644C48.7925 59.0644 33.2119 50.5198 33.2119 33.5218C33.2116 16.5197 48.7923 0 68.0043 0C87.2123 0 102.789 16.5197 102.789 33.5218Z" fill="black"/>
<path d="M102.789 33.5218C102.789 50.5198 87.2123 59.0644 68.0046 59.0644C48.7925 59.0644 33.2119 50.5198 33.2119 33.5218C33.2119 16.5197 48.7925 17.3547 68.0046 17.3547C87.2123 17.3549 102.789 16.5197 102.789 33.5218Z" fill="#F9BD82"/>
<path d="M102.789 33.5218C102.789 50.5198 87.2123 59.0644 68.0046 59.0644C48.7925 59.0644 33.2119 50.5198 33.2119 33.5218" fill="#EDA366"/>
<path d="M51.4592 40.3411C53.1774 40.3411 54.5702 38.9483 54.5702 37.2301C54.5702 35.5119 53.1774 34.119 51.4592 34.119C49.741 34.119 48.3481 35.5119 48.3481 37.2301C48.3481 38.9483 49.741 40.3411 51.4592 40.3411Z" fill="#113E49"/>
<path d="M54.5698 37.2236C54.5698 38.9469 53.1758 40.3368 51.4565 40.3368C49.7373 40.3368 48.3477 38.9469 48.3477 37.2236" fill="black"/>
<path d="M57.5962 43.7112C57.4306 43.7112 57.2603 43.6515 57.1308 43.5177C55.6115 42.0005 53.5949 41.1653 51.4529 41.1653H51.4486C49.3065 41.1653 47.2943 42.0027 45.7833 43.5156C45.5262 43.7727 45.1118 43.7791 44.8569 43.5177C44.5998 43.269 44.5911 42.8546 44.8482 42.5954C46.612 40.8294 48.9537 39.8542 51.4464 39.8542H51.4507C53.9496 39.8542 56.2937 40.8232 58.0616 42.5911C58.3143 42.8438 58.3143 43.2668 58.0616 43.5175C57.9361 43.6518 57.7705 43.7112 57.5962 43.7112Z" fill="#FFD3C5"/>
<path d="M84.5539 40.3411C86.2721 40.3411 87.665 38.9483 87.665 37.2301C87.665 35.5119 86.2721 34.119 84.5539 34.119C82.8357 34.119 81.4429 35.5119 81.4429 37.2301C81.4429 38.9483 82.8357 40.3411 84.5539 40.3411Z" fill="#113E49"/>
<path d="M81.4341 37.2236C81.4341 38.9469 82.824 40.3368 84.5473 40.3368C86.2663 40.3368 87.6562 38.9469 87.6562 37.2236" fill="black"/>
<path d="M78.4082 43.7112C78.5698 43.7112 78.7397 43.6515 78.8692 43.5177C80.3886 42.0005 82.4052 41.1653 84.5472 41.1653H84.5515C86.6935 41.1653 88.7101 42.0027 90.2211 43.5156C90.4739 43.7727 90.8883 43.7791 91.1475 43.5177C91.4046 43.269 91.4089 42.8546 91.1518 42.5954C89.3967 40.8294 87.0464 39.8542 84.5537 39.8542H84.5494C82.0547 39.8542 79.7107 40.8232 77.9385 42.5911C77.6898 42.8438 77.6898 43.2668 77.9385 43.5175C78.068 43.6518 78.2339 43.7112 78.4082 43.7112Z" fill="#FFD3C5"/>
<path d="M60.3311 52.5088C60.3311 51.5293 63.7672 48.21 68.0002 48.21C72.2333 48.21 75.6694 51.5293 75.6694 52.5088C75.6694 53.4927 72.2333 52.9084 68.0002 52.9084C63.7672 52.9084 60.3311 53.4927 60.3311 52.5088Z" fill="#AA1111"/>
<path d="M93.1557 78.6781C94.435 74.8085 90.4952 70.0399 84.3602 68.0128C78.2339 65.9919 47.0238 59.1877 45.7405 63.0468C44.4699 66.9143 73.6226 79.9936 79.7532 82.0144C85.8796 84.0396 91.8805 82.5435 93.1557 78.6781Z" fill="#EDA366"/>
<path d="M42.8446 78.6781C41.5653 74.8085 45.5051 70.0399 51.6401 68.0128C57.7664 65.9919 88.9764 59.1877 90.2598 63.0468C91.5304 66.9143 62.3777 79.9936 56.247 82.0144C50.1204 84.0396 44.1195 82.5435 42.8446 78.6781Z" fill="#F9BD82"/>
<path d="M79.953 64.8996C79.7212 64.0134 79.5621 63.1698 79.4388 62.3497C78.8418 62.422 78.234 62.4983 77.6113 62.5814C77.709 63.797 77.9216 65.1421 78.2933 66.5595C78.7544 68.3125 79.3643 69.8789 80.0231 71.126C80.7011 70.7562 81.3599 70.3909 81.9952 70.0275C81.2153 68.7118 80.4842 66.927 79.953 64.8996Z" fill="#7A4E0E"/>
<path d="M78.5908 68.5737C80.6211 68.5737 82.267 66.9278 82.267 64.8975C82.267 62.8671 80.6211 61.2212 78.5908 61.2212C76.5605 61.2212 74.9146 62.8671 74.9146 64.8975C74.9146 66.9278 76.5605 68.5737 78.5908 68.5737Z" fill="#38494C"/>
<path d="M78.3063 66.5423C79.4435 66.5423 80.3655 65.6203 80.3655 64.4831C80.3655 63.3458 79.4435 62.4239 78.3063 62.4239C77.169 62.4239 76.2471 63.3458 76.2471 64.4831C76.2471 65.6203 77.169 66.5423 78.3063 66.5423Z" fill="#A3E1EF"/>
<path d="M65.7857 36.0442C65.7857 39.3146 63.1338 41.9665 59.8677 41.9665H51.7183C48.4459 41.9665 45.7959 39.3146 45.7959 36.0442V32.8398C45.7959 29.5674 48.4459 26.9152 51.7183 26.9152H59.8677C63.1338 26.9152 65.7857 29.5671 65.7857 32.8398V36.0442Z" fill="black"/>
<path d="M52.9548 29.3823C52.9548 30.7487 51.8498 31.8516 50.4877 31.8516H36.6709C35.3045 31.8516 34.2017 30.7466 34.2017 29.3823C34.2017 28.0159 35.3067 26.9152 36.6709 26.9152H50.4877C51.8498 26.9152 52.9548 28.0181 52.9548 29.3823Z" fill="black"/>
<path d="M70.2144 36.0442C70.2144 39.3146 72.86 41.9665 76.1324 41.9665H84.2753C87.5499 41.9665 90.1977 39.3146 90.1977 36.0442V32.8398C90.1977 29.5674 87.5499 26.9152 84.2753 26.9152H76.1324C72.86 26.9152 70.2144 29.5671 70.2144 32.8398V36.0442Z" fill="black"/>
<path d="M83.043 29.3823C83.043 30.7487 84.148 31.8516 85.5122 31.8516H99.329C100.689 31.8516 101.796 30.7466 101.796 29.3823C101.796 28.0159 100.689 26.9152 99.329 26.9152H85.5122C84.148 26.9152 83.043 28.0181 83.043 29.3823Z" fill="black"/>
<path d="M58.8687 29.3823C58.8687 30.7487 59.9758 31.8516 61.3379 31.8516H75.1569C76.519 31.8516 77.6261 30.7466 77.6261 29.3823C77.6261 28.0159 76.519 26.9152 75.1569 26.9152H61.3379C59.9758 26.9152 58.8687 28.0181 58.8687 29.3823Z" fill="black"/>
</svg>